<svg width="14" height="15" viewBox="0 0 14 15" fill="none" xmlns="http://www.w3.org/2000/svg">
<path fill-rule="evenodd" clip-rule="evenodd" d="M7 14.5C10.866 14.5 14 11.366 14 7.5C14 3.63401 10.866 0.5 7 0.5C3.13401 0.5 0 3.63401 0 7.5C0 11.366 3.13401 14.5 7 14.5ZM6.79573 5.33489C6.9354 5.47334 7.12745 5.54257 7.37187 5.54257C7.6931 5.54257 7.96895 5.42834 8.1994 5.19989C8.43684 4.96452 8.55555 4.68414 8.55555 4.35877C8.55555 4.13724 8.48572 3.95725 8.34605 3.81879C8.20638 3.68033 8.01434 3.61111 7.76992 3.61111C7.44868 3.61111 7.17284 3.72879 6.94239 3.96417C6.71193 4.19262 6.59671 4.46953 6.59671 4.79491C6.59671 5.01644 6.66305 5.19643 6.79573 5.33489ZM5.77965 11.2435C6.00312 11.3404 6.26849 11.3889 6.57576 11.3889C6.85509 11.3889 7.13443 11.3543 7.41377 11.285C7.70009 11.2158 7.93403 11.1189 8.1156 10.9943L8.18892 10.6516C8.14004 10.6585 8.06672 10.6758 7.96895 10.7035C7.87816 10.7243 7.80484 10.7347 7.74897 10.7347C7.58835 10.7347 7.50804 10.6585 7.50804 10.5062C7.50804 10.4439 7.51153 10.3955 7.51852 10.3608L8.367 6.30062H7.97942L5.55967 7.01713L5.57014 7.4325C5.6749 7.41173 5.74124 7.40135 5.76917 7.40135C5.96471 7.40135 6.06248 7.48788 6.06248 7.66095L6.04153 7.78556L5.46539 10.6101C5.45143 10.6793 5.44444 10.7278 5.44444 10.7554C5.44444 10.9839 5.55618 11.1466 5.77965 11.2435Z" fill="black"/>
</svg>
