<svg width="162" height="24" viewBox="0 0 162 24" fill="none" xmlns="http://www.w3.org/2000/svg">
<g clip-path="url(#clip0_1_4966)">
<path d="M30.2719 8.1383H45.4214V0.415039H30.2719V8.1383Z" fill="#424653"/>
<path d="M0 0.415039V8.13831H7.56124V23.5848H15.1225V8.13831H22.7107V0.415039H0Z" fill="#424653"/>
<path d="M22.7107 23.585H45.4214V15.8617H30.272V8.13843H22.7107V23.585Z" fill="#424653"/>
<path d="M64.7296 6.24805H53.6037V9.46157H57.3303V19.5343H61.0029V9.46157H64.7296V6.24805Z" fill="#424653"/>
<path d="M68.9153 9.35364C66.2959 9.35364 64.3515 11.109 64.3515 14.5655C64.3515 17.617 65.9988 19.7504 68.9963 19.7504C70.5626 19.7504 71.8318 19.3453 73.047 18.6162L71.7507 16.4288C70.7516 16.9419 70.0495 17.1309 69.1583 17.1309C68.2402 17.1309 67.5921 16.6449 67.457 15.5377H73.317C73.344 15.3757 73.344 15.1596 73.344 14.8626C73.371 11.163 71.6697 9.35364 68.9153 9.35364ZM67.5111 13.4043C67.6191 12.4052 68.0511 11.8921 68.8343 11.8921C69.8334 11.8921 70.1845 12.4052 70.3465 13.4043H67.5111Z" fill="#424653"/>
<path d="M79.8521 16.9689C78.9339 16.9689 78.4478 16.1588 78.4478 14.5655C78.4478 12.9993 78.8799 12.1081 79.7711 12.1081C80.5002 12.1081 80.8242 12.5132 81.3103 13.4043L83.6597 11.622C82.7956 10.2178 81.7154 9.35364 79.8251 9.35364C76.6386 9.35364 75.0723 11.46 75.0723 14.5115C75.0723 17.8601 76.8276 19.7234 79.7441 19.7234C81.4993 19.7234 82.5795 19.0483 83.7407 17.347L81.5804 15.6457C80.9323 16.6179 80.5002 16.9689 79.8521 16.9689Z" fill="#424653"/>
<path d="M91.6259 9.35348C90.4377 9.35348 89.7356 9.75855 89.1145 10.2176V5.70789L85.685 7.08511V19.5611H89.1145V13.8632C89.1145 12.621 89.5466 12.27 90.2757 12.27C90.9778 12.27 91.4099 12.621 91.4099 13.8902V19.5611H94.8395V13.4582C94.8395 10.8387 93.7863 9.35348 91.6259 9.35348Z" fill="#424653"/>
<path d="M103.076 16.5368C101.483 16.5368 100.834 14.9166 100.834 12.8912C100.834 10.7849 101.51 9.24563 103.049 9.24563C104.264 9.24563 104.723 10.0288 105.182 11.271L108.531 9.94774C107.613 7.43633 106.316 6.0321 103.049 6.0321C99.4843 6.0321 96.9729 8.62453 96.9729 12.8912C96.9729 16.8339 99.0792 19.7503 103.022 19.7503C106.181 19.7503 107.667 18.0491 108.558 16.3208L105.452 14.6735C104.723 15.9157 104.237 16.5368 103.076 16.5368Z" fill="#424653"/>
<path d="M114.067 10.2988V9.56967H110.637V19.5343H114.067V14.1065C114.067 12.8913 114.58 12.4862 115.417 12.4862C116.092 12.4862 116.578 12.8372 117.01 13.3233L117.82 9.78571C117.415 9.54267 116.929 9.35364 116.2 9.35364C115.309 9.35364 114.634 9.7317 114.067 10.2988Z" fill="#424653"/>
<path d="M125.138 15.2675C125.138 16.5097 124.706 16.8607 124.004 16.8607C123.302 16.8607 122.87 16.5097 122.87 15.2405V9.56958H119.44V15.6725C119.44 18.292 120.494 19.7502 122.681 19.7502C123.842 19.7502 124.571 19.3451 125.165 18.8861V19.5612H128.595V9.59659H125.165V15.2675" fill="#424653"/>
<path d="M136.993 9.35364C135.805 9.35364 135.103 9.75871 134.482 10.2178V9.54267H131.052V19.5073H134.482V13.8094C134.482 12.5672 134.914 12.2161 135.643 12.2161C136.345 12.2161 136.777 12.5672 136.777 13.8364V19.5073H140.207V13.4043C140.207 10.8389 139.181 9.35364 136.993 9.35364Z" fill="#424653"/>
<path d="M147.012 16.9689C146.094 16.9689 145.608 16.1588 145.608 14.5655C145.608 12.9993 146.04 12.1081 146.904 12.1081C147.633 12.1081 147.957 12.5132 148.443 13.4043L150.793 11.622C149.929 10.2178 148.848 9.35364 146.958 9.35364C143.772 9.35364 142.205 11.46 142.205 14.5115C142.205 17.8601 143.961 19.7234 146.877 19.7234C148.632 19.7234 149.712 19.0483 150.874 17.347L148.713 15.6457C148.119 16.6179 147.66 16.9689 147.012 16.9689Z" fill="#424653"/>
<path d="M158.786 9.35348C157.598 9.35348 156.896 9.75855 156.275 10.2176V5.70789L152.845 7.08511V19.5611H156.275V13.8632C156.275 12.621 156.707 12.27 157.436 12.27C158.138 12.27 158.57 12.621 158.57 13.8902V19.5611H161.999V13.4582C162.026 10.8387 160.973 9.35348 158.786 9.35348Z" fill="#424653"/>
</g>
<defs>
<clipPath id="clip0_1_4966">
<rect width="162" height="24" fill="white"/>
</clipPath>
</defs>
</svg>
