<svg width="133" height="42" viewBox="0 0 133 42" fill="none" xmlns="http://www.w3.org/2000/svg">
<g clip-path="url(#clip0_1_4981)">
<path fill-rule="evenodd" clip-rule="evenodd" d="M10.3094 41.5H13.4033V25.1H10.3094V41.5ZM21.6506 41.254H24.4216V30.9066L36.0856 41.5V25.346H33.3223V35.5166L21.6506 25.1V41.254ZM42.4115 37.2821C43.9197 38.4481 45.73 39.122 47.6708 39.122C49.5612 39.122 50.8874 38.4762 50.8874 37.0502C50.8874 35.8074 50.0416 35.3205 48.5605 34.776L46.1626 33.9496C43.952 33.1706 42.2708 32.0328 42.2708 29.4178C42.2708 26.6208 44.8158 25.1 47.8593 25.1C49.7239 25.1 51.4232 25.5651 52.7506 26.3889V29.1628C51.3703 28.1507 49.8595 27.4537 47.9187 27.4537C46.2478 27.4537 44.9992 28.0725 44.9992 29.3627C44.9992 30.5287 45.783 30.995 47.1634 31.464L49.835 32.3942C52.424 33.2974 53.6119 34.6978 53.6119 37.0015C53.6119 39.8997 51.0423 41.5 47.6708 41.5C45.455 41.5 43.5711 40.885 42.4115 40.1086V37.2821ZM60.8301 41.5H63.9226V25.1H60.8301V41.5ZM78.4313 39.0182C81.9177 39.0182 83.781 36.7991 83.781 33.2962C83.781 29.7676 81.9164 27.5562 78.4313 27.5562H74.9836V39.0182H78.4313ZM72.1686 25.1H78.5346C83.4349 25.1 86.6037 28.3031 86.6037 33.2962C86.6037 38.293 83.4349 41.5 78.5346 41.5H72.1686V25.1ZM102.07 25.1V27.5562H94.585V31.5024H101.298V33.9304H94.5837V39.0182H102.07V41.5H91.7597V25.1H102.07ZM113.049 32.5261H116.118C117.935 32.5261 118.959 31.537 118.959 30.0162C118.959 28.4953 117.935 27.5049 116.118 27.5049H113.049V32.5274V32.5261ZM113.049 34.8452V41.5H110.318V25.1H116.17C119.506 25.1 121.665 26.8053 121.665 30.0162C121.665 32.7619 120.467 34.3391 117.914 34.744L123.721 41.5H120.614L114.992 34.8465H113.05L113.049 34.8452ZM9.22865 8.94344C10.4386 8.50397 11.3812 7.18556 11.3812 5.37259C11.3812 2.35141 9.22865 0.785719 5.78485 0.785719H0V17.6508H6.32202C9.76582 17.6508 11.9183 15.9749 11.9183 12.8167C11.9183 11.0306 10.7885 9.46491 9.22865 8.94344ZM2.71682 7.87231V3.25853H5.75903C7.6701 3.25853 8.69149 3.94528 8.69149 5.53787C8.69149 7.13047 7.66881 7.87231 5.75903 7.87231H2.71682ZM2.71682 10.2349H6.26779C8.15303 10.2349 9.17442 11.1677 9.17442 12.7065C9.17442 14.2171 8.15174 15.1793 6.26908 15.1793H2.71811V10.2337L2.71682 10.2349ZM24.5404 17.925C28.4956 17.925 31.1594 15.5624 31.1594 10.9486V0.785719H28.3613V10.618C28.3613 13.8596 27.0158 15.3715 24.5404 15.3715C22.0651 15.3715 20.7209 13.8596 20.7209 10.618V0.785719H17.9227V10.9204C17.9227 15.5624 20.6124 17.925 24.5404 17.925ZM37.7475 16.4413C38.9044 17.2664 40.7884 17.925 42.9939 17.925C46.3576 17.925 48.913 16.2209 48.913 13.1459C48.913 10.7013 47.7302 9.21762 45.1464 8.25669L42.4838 7.26756C41.1112 6.77428 40.3313 6.27972 40.3313 5.04331C40.3313 3.66981 41.5683 3.01125 43.2366 3.01125C45.1735 3.01125 46.6804 3.75181 48.053 4.82422V1.88375C46.7347 1.00609 45.0392 0.511531 43.1824 0.511531C40.1428 0.511531 37.6132 2.13231 37.6132 5.09841C37.6132 7.87231 39.2815 9.08053 41.487 9.90438L43.8823 10.7833C45.362 11.3599 46.1962 11.8826 46.1962 13.201C46.1962 14.7116 44.8778 15.3984 42.9939 15.3984C41.057 15.3984 39.2544 14.6834 37.7475 13.4483V16.4413ZM58.9113 0.785719H56.1144V17.6495H58.9113V0.785719ZM66.8938 17.629H69.59V6.65769L80.9376 17.8904V0.760094H78.2492V11.5444L66.8938 0.5V17.629ZM98.4226 0.789562V3.31491H91.1579V7.37391H97.6724V9.87106H91.1579V15.1024H98.4226V17.6547H88.4153V0.789562H98.4226ZM104.937 16.4298C106.094 17.2549 107.977 17.9135 110.183 17.9135C113.546 17.9135 116.103 16.2107 116.103 13.1344C116.103 10.6898 114.918 9.20738 112.336 8.24516L109.672 7.25731C108.299 6.76275 107.52 6.26819 107.52 5.03178C107.52 3.65828 108.757 2.99972 110.425 2.99972C112.362 2.99972 113.869 3.74156 115.241 4.81269V1.8735C113.923 0.994563 112.227 0.5 110.371 0.5C107.331 0.5 104.801 2.12078 104.801 5.08687C104.801 7.86078 106.47 9.069 108.675 9.89284L111.07 10.7718C112.55 11.3483 113.384 11.8711 113.384 13.1895C113.384 14.7001 112.067 15.3868 110.182 15.3868C108.245 15.3868 106.443 14.6732 104.937 13.4368V16.4298ZM121.834 16.4298C122.991 17.2549 124.875 17.9135 127.081 17.9135C130.445 17.9135 133 16.2107 133 13.1344C133 10.6898 131.816 9.20738 129.233 8.24516L126.57 7.25731C125.198 6.76275 124.417 6.26819 124.417 5.03178C124.417 3.65828 125.655 2.99972 127.322 2.99972C129.259 2.99972 130.767 3.74156 132.139 4.81269V1.8735C130.822 0.994563 129.126 0.5 127.269 0.5C124.228 0.5 121.7 2.12078 121.7 5.08687C121.7 7.86078 123.368 9.069 125.574 9.89284L127.969 10.7718C129.449 11.3483 130.283 11.8711 130.283 13.1895C130.283 14.7001 128.965 15.3868 127.081 15.3868C125.144 15.3868 123.341 14.6732 121.834 13.4368V16.4298Z" fill="#424653"/>
</g>
<defs>
<clipPath id="clip0_1_4981">
<rect width="133" height="42" fill="white"/>
</clipPath>
</defs>
</svg>
