<svg width="202" height="42" viewBox="0 0 202 42" fill="none" xmlns="http://www.w3.org/2000/svg">
<g clip-path="url(#clip0_1_4986)">
<path d="M58.4215 8.06098H54.1V19.1335H53.028V8.06098H48.7065V7.20681H58.4215V8.06098ZM61.2355 11.794C61.5705 11.2562 62.006 10.8449 62.542 10.5602C63.078 10.2755 63.6475 10.1173 64.284 10.1173C65.289 10.1173 66.026 10.402 66.5285 10.9082C67.031 11.4144 67.2655 12.2369 67.2655 13.3125V19.1335H66.227V13.3125C66.227 12.5216 66.0595 11.9206 65.691 11.5409C65.356 11.1613 64.7865 10.9715 64.016 10.9715C63.3795 10.9715 62.81 11.1613 62.3075 11.5409C61.805 11.9206 61.4365 12.4267 61.202 13.0911V19.1652H60.197V6.5741H61.2355V11.794ZM73.597 19.2917C72.793 19.2917 72.0895 19.1019 71.4195 18.7222C70.783 18.3426 70.2805 17.8364 69.912 17.1721C69.5435 16.5077 69.376 15.7801 69.376 14.9259V14.578C69.376 13.7238 69.5435 12.9645 69.912 12.2685C70.247 11.5726 70.7495 11.0664 71.386 10.6551C72.0225 10.2755 72.6925 10.054 73.4295 10.054C74.5685 10.054 75.473 10.4337 76.143 11.1613C76.813 11.8889 77.148 12.9013 77.148 14.1667V14.7045H70.448V14.8943C70.448 15.9067 70.7495 16.7292 71.3525 17.3935C71.9555 18.0579 72.726 18.4059 73.664 18.4059C74.2335 18.4059 74.7025 18.311 75.138 18.1212C75.5735 17.9314 75.942 17.615 76.3105 17.2037L76.947 17.6783C76.143 18.7855 75.0375 19.2917 73.597 19.2917ZM73.396 10.9398C72.6255 10.9398 71.9555 11.2246 71.4195 11.7624C70.8835 12.3002 70.5485 13.0278 70.448 13.9452H76.076V13.8503C76.0425 12.9962 75.7745 12.3002 75.3055 11.7624C74.8365 11.2246 74.2 10.9398 73.396 10.9398ZM52.224 30.5857V35.2678H49.343V22.0124H54.8035C55.8755 22.0124 56.78 22.2022 57.584 22.5502C58.388 22.9298 58.991 23.436 59.4265 24.1003C59.862 24.7647 60.063 25.5239 60.063 26.3781C60.063 27.6752 59.594 28.6875 58.656 29.4468C57.718 30.206 56.4115 30.5857 54.7365 30.5857H52.224ZM52.224 28.3712H54.8035C55.574 28.3712 56.1435 28.213 56.5455 27.865C56.9475 27.517 57.1485 27.0425 57.1485 26.4097C57.1485 25.7454 56.9475 25.2392 56.5455 24.828C56.1435 24.4167 55.574 24.2269 54.8705 24.1952H52.224V28.3712ZM70.515 29.5101H64.954V33.0849H71.453V35.2678H62.0395V22.0124H71.4195V24.2269H64.9205V27.3905H70.4815L70.515 29.5101ZM84.585 35.2678H81.704L76.076 26.5363V35.2678H73.195V22.0124H76.076L81.704 30.7439V22.0124H84.585V35.2678ZM98.521 35.2678H95.64L90.012 26.5363V35.2678H87.131V22.0124H90.012L95.64 30.7439V22.0124H98.521V35.2678ZM105.623 27.9915L108.537 22.0124H111.687L107.097 30.4591V35.2678H104.149V30.4591L99.5595 22.0124H102.742L105.623 27.9915ZM125.891 35.2678H124.685V28.909H116.678V35.2678H115.472V22.0124H116.644V27.9599H124.651V22.0124H125.857V35.2678H125.891ZM139.793 29.3519C139.793 30.554 139.559 31.6297 139.123 32.5787C138.688 33.4962 138.051 34.2238 137.214 34.6983C136.376 35.2045 135.438 35.4576 134.332 35.4576C132.691 35.4576 131.384 34.8881 130.346 33.8125C129.341 32.7053 128.839 31.2184 128.839 29.3202V27.9599C128.839 26.7577 129.073 25.6821 129.508 24.7647C129.944 23.8472 130.614 23.1196 131.418 22.6135C132.256 22.1073 133.194 21.8542 134.266 21.8542C135.338 21.8542 136.309 22.1073 137.113 22.5818C137.917 23.0564 138.587 23.7523 139.022 24.6698C139.458 25.5556 139.693 26.5996 139.726 27.8017L139.793 29.3519ZM138.621 27.9283C138.621 26.3465 138.252 25.081 137.481 24.1636C136.711 23.2462 135.672 22.8033 134.332 22.8033C133.026 22.8033 131.988 23.2462 131.217 24.1636C130.447 25.081 130.045 26.3465 130.045 27.9599V29.3519C130.045 30.9337 130.447 32.1675 131.217 33.0849C131.988 34.0023 133.026 34.4769 134.366 34.4769C135.706 34.4769 136.744 34.034 137.515 33.1165C138.252 32.1991 138.654 30.9337 138.654 29.3202V27.9283H138.621ZM150.178 31.5347H143.813L142.372 35.2678H141.133L146.459 22.0124H147.599L152.925 35.2678H151.686L150.178 31.5347ZM144.182 30.5857H149.81L146.996 23.3727L144.182 30.5857ZM160.161 29.7315H156.074V35.2678H154.868V22.0124H159.424C160.932 22.0124 162.104 22.3604 162.942 23.0564C163.779 23.7523 164.215 24.7014 164.215 25.9352C164.215 26.7894 163.946 27.517 163.41 28.1814C162.874 28.8141 162.171 29.2886 161.3 29.5417L164.817 35.1729V35.2994H163.545L160.161 29.7315ZM156.074 28.7824H159.692C160.697 28.7824 161.501 28.4977 162.104 27.9915C162.707 27.4854 163.009 26.7577 163.009 25.9036C163.009 24.9545 162.707 24.2269 162.071 23.7207C161.434 23.2145 160.563 22.9298 159.424 22.9298H156.074V28.7824ZM167.464 35.2678V22.0124H171.384C172.523 22.0124 173.561 22.2655 174.465 22.7716C175.37 23.2778 176.107 23.9738 176.61 24.8912C177.112 25.8087 177.38 26.8526 177.38 28.0548V29.257C177.38 30.4275 177.112 31.5031 176.61 32.4206C176.107 33.338 175.403 34.034 174.465 34.5401C173.527 35.0463 172.489 35.2994 171.283 35.2994L167.464 35.2678ZM168.637 22.9615V34.3187H171.283C172.757 34.3187 173.963 33.8442 174.834 32.9267C175.739 32.0093 176.174 30.7439 176.174 29.1621V27.9915C176.174 26.473 175.739 25.2392 174.868 24.3218C173.996 23.4043 172.824 22.9298 171.384 22.9298L168.637 22.9615ZM188.134 28.909H181.568V34.3187H189.105V35.2678H180.362V22.0124H189.038V22.9615H181.534V27.9599H188.1V28.909H188.134ZM196.844 29.7315H192.757V35.2678H191.55V22.0124H196.107C197.614 22.0124 198.787 22.3604 199.624 23.0564C200.462 23.7523 200.897 24.7014 200.897 25.9352C200.897 26.7894 200.629 27.517 200.093 28.1814C199.557 28.8141 198.854 29.2886 197.982 29.5417L201.5 35.1729V35.2994H200.227L196.844 29.7315ZM192.757 28.7824H196.375C197.38 28.7824 198.184 28.4977 198.787 27.9915C199.39 27.4854 199.691 26.7577 199.691 25.9036C199.691 24.9545 199.389 24.2269 198.753 23.7207C198.117 23.2145 197.246 22.9298 196.107 22.9298H192.757V28.7824Z" fill="#424653"/>
<path d="M22.208 0.5C10.215 0.5 0.5 9.67438 0.5 21C0.5 32.3256 10.215 41.5 22.208 41.5C34.201 41.5 43.916 32.3256 43.916 21C43.916 9.67438 34.201 0.5 22.208 0.5ZM32.794 31.4082C32.459 31.6929 25.9935 35.6474 22.208 35.1096C18.456 34.5401 15.508 33.9707 14.57 33.3696C13.632 32.7685 11.153 30.6489 11.153 30.6489C11.153 30.6489 11.019 29.162 11.9905 27.7068C12.962 26.2199 13.0625 25.8086 13.3975 25.2076C13.7325 24.6065 14.0675 24.1636 14.57 23.3727C15.039 22.5818 16.4795 20.8102 16.4795 20.8102C16.4795 20.8102 16.8815 19.6713 17.0155 19.3866C17.1495 19.1019 17.3505 19.1968 16.781 18.6906C16.178 18.1844 15.039 15.8434 15.039 15.179C15.039 14.5463 14.101 11.0664 14.704 10.2122C15.2735 9.32638 16.0775 8.37732 16.714 7.93441C17.3505 7.52315 17.719 6.82715 18.0875 6.54243C18.4225 6.25771 18.8245 6.35262 19.0255 6.32099C19.2265 6.25772 20.332 5.7199 20.6 5.81481C20.8345 5.90972 21.1025 5.625 21.6385 5.81481C22.1745 6.00463 22.342 6.28935 22.7105 6.28935C23.0455 6.28935 23.481 6.00463 23.9835 6.19445C24.486 6.38426 24.5865 6.66898 24.8545 6.73225C25.156 6.82716 24.9885 6.82716 25.625 6.9537C26.2615 7.08025 26.7975 7.23842 26.9985 7.55478C27.1995 7.87114 27.635 8.1875 27.635 8.69367C27.635 9.19985 27.0655 9.57947 26.9985 9.76929C26.965 9.9591 27.6685 11.1929 27.635 11.3827C27.6015 11.5725 28.0705 12.2052 27.97 12.3951C27.8695 12.5849 27.6685 12.7747 27.769 13.2176C27.8695 13.6921 29.176 15.4321 29.176 15.6219C29.176 15.8117 29.377 16.0332 29.176 16.1281C28.975 16.223 28.3385 16.3179 28.2045 16.3179C28.0705 16.3179 27.97 16.3179 27.97 16.6026C27.97 16.8873 28.0705 17.0139 28.0035 17.2986C27.97 17.5833 27.903 17.9313 27.702 17.9946L27.836 18.9437C28.037 19.2284 28.439 19.26 28.372 19.8295C28.305 20.4306 28.6735 20.0509 28.305 20.4306C27.97 20.8102 27.97 20.6204 27.6685 20.9367C27.367 21.2531 26.9985 21.0633 26.5295 21.0633C26.094 21.0633 25.8595 20.9367 25.6585 21.2531C25.4575 21.5694 25.625 21.4429 25.424 21.7593C25.223 22.0756 24.687 21.9807 24.7875 22.3603C24.888 22.74 25.223 23.088 25.558 23.2461C25.893 23.3727 26.63 23.8789 26.5965 24.0687C26.563 24.2585 26.3955 24.4483 26.3955 24.5748C26.3955 24.7014 32.526 30.3009 33.0285 30.6489C33.531 30.9969 33.129 31.1235 32.794 31.4082Z" fill="#424653"/>
</g>
<defs>
<clipPath id="clip0_1_4986">
<rect width="202" height="42" fill="white"/>
</clipPath>
</defs>
</svg>
