<svg width="168" height="39" viewBox="0 0 168 39" fill="none" xmlns="http://www.w3.org/2000/svg">
<path d="M16.6838 19.5243H22.2452C23.871 19.5243 25.1894 18.2465 25.1894 16.6708C25.1894 15.0949 23.871 13.8171 22.2452 13.8171H16.6838V19.5243Z" fill="#424653"/>
<path fill-rule="evenodd" clip-rule="evenodd" d="M39.2561 19.524C39.2561 30.0308 30.4683 38.5481 19.628 38.5481C8.78776 38.5481 0 30.0308 0 19.524C0 9.01736 8.78776 0.5 19.628 0.5C30.4683 0.5 39.2561 9.01736 39.2561 19.524ZM12.7583 10.0123H22.2452C26.04 10.0123 29.115 12.9928 29.115 16.6708C29.115 20.3488 26.04 23.3292 22.2452 23.3292H16.6838V29.0365H12.7583V10.0123Z" fill="#424653"/>
<path d="M52.3416 25.8651V13.1824H58.3526C61.1481 13.1824 62.6692 15.0135 62.6692 17.1981C62.6692 19.3652 61.1284 21.1946 58.3526 21.1946H55.0781V25.8651H52.3416ZM59.8772 17.1981C59.8772 16.1518 59.0478 15.516 57.9683 15.516H55.0781V18.8595H57.9683C59.0462 18.861 59.8772 18.2253 59.8772 17.1981Z" fill="#424653"/>
<path d="M64.3344 16.6197H66.7812V17.834C67.4569 17.0493 68.5937 16.3961 69.7501 16.3961V18.7123C69.5768 18.6742 69.3641 18.6567 69.0746 18.6567C68.265 18.6567 67.1855 19.1054 66.7797 19.6841V25.8669H64.3344V16.6197Z" fill="#424653"/>
<path d="M70.6774 21.12C70.6774 18.5613 72.5274 16.3942 75.5926 16.3942C78.6759 16.3942 80.5258 18.5613 80.5258 21.12C80.5258 23.6787 78.6759 25.8649 75.5926 25.8649C72.5274 25.8649 70.6774 23.6787 70.6774 21.12ZM77.9824 21.12C77.9824 19.7185 77.1334 18.5042 75.5926 18.5042C74.0682 18.5042 73.2209 19.7185 73.2209 21.12C73.2209 22.5404 74.0682 23.7533 75.5926 23.7533C77.1334 23.7533 77.9824 22.5404 77.9824 21.12Z" fill="#424653"/>
<path d="M88.7598 25.8652V24.4827C88.027 25.38 87.026 25.8652 85.8874 25.8652C83.5551 25.8652 81.764 24.1465 81.764 21.1201C81.764 18.1873 83.519 16.3942 85.8874 16.3942C86.9867 16.3942 88.027 16.8429 88.7598 17.7767V13.1824H91.2264V25.8652H88.7598ZM88.7598 22.7261V19.5317C88.354 18.9339 87.4675 18.5043 86.6579 18.5043C85.2512 18.5043 84.2879 19.5698 84.2879 21.1201C84.2879 22.6896 85.2512 23.7534 86.6579 23.7534C87.4693 23.7534 88.3558 23.3238 88.7598 22.7261Z" fill="#424653"/>
<path d="M99.9444 25.8653V24.5019C99.3081 25.1741 98.1909 25.8653 96.6698 25.8653C94.6268 25.8653 93.6635 24.7808 93.6635 23.026V16.6195H96.1105V22.0921C96.1105 23.3445 96.786 23.7551 97.8262 23.7551C98.7717 23.7551 99.5223 23.2511 99.946 22.7278V16.6195H102.395V25.8653H99.9444Z" fill="#424653"/>
<path d="M104.23 21.12C104.23 18.3552 106.31 16.3942 109.163 16.3942C111.072 16.3942 112.228 17.1979 112.845 18.0191L111.244 19.4759C110.8 18.8402 110.126 18.5042 109.279 18.5042C107.794 18.5042 106.754 19.5505 106.754 21.12C106.754 22.6895 107.794 23.7533 109.279 23.7533C110.126 23.7533 110.802 23.3791 111.244 22.7624L112.845 24.2193C112.228 25.0422 111.072 25.8634 109.163 25.8634C106.31 25.8649 104.23 23.9039 104.23 21.12Z" fill="#424653"/>
<path d="M114.948 23.3809V18.6931H113.408V16.6194H114.948V14.1543H117.397V16.6194H119.285V18.6931H117.397V22.7468C117.397 23.3254 117.704 23.7552 118.244 23.7552C118.611 23.7552 118.959 23.6235 119.092 23.4745L119.613 25.2865C119.247 25.6052 118.591 25.8668 117.57 25.8668C115.854 25.8652 114.948 25.006 114.948 23.3809Z" fill="#424653"/>
<path d="M134.961 25.8652V20.3925H128.889V25.8652H126.154V13.1824H128.889V18.0764H134.961V13.1824H137.717V25.8652H134.961Z" fill="#424653"/>
<path d="M146.474 25.8653V24.5019C145.838 25.1741 144.721 25.8653 143.2 25.8653C141.157 25.8653 140.193 24.7808 140.193 23.026V16.6195H142.64V22.0921C142.64 23.3445 143.316 23.7551 144.356 23.7551C145.302 23.7551 146.052 23.2511 146.476 22.7278V16.6195H148.925V25.8653H146.474Z" fill="#424653"/>
<path d="M157.638 25.8653V20.1866C157.638 18.9342 156.964 18.5046 155.922 18.5046C154.958 18.5046 154.227 19.0277 153.802 19.5509V25.8653H151.355V16.6197H153.802V17.7784C154.401 17.1062 155.557 16.3961 157.06 16.3961C159.123 16.3961 160.104 17.5168 160.104 19.2718V25.8653H157.638Z" fill="#424653"/>
<path d="M163.021 23.3809V18.6931H161.48V16.6194H163.021V14.1543H165.469V16.6194H167.357V18.6931H165.469V22.7468C165.469 23.3254 165.776 23.7552 166.317 23.7552C166.682 23.7552 167.03 23.6235 167.165 23.4745L167.685 25.2865C167.32 25.6052 166.663 25.8668 165.643 25.8668C163.927 25.8652 163.021 25.006 163.021 23.3809Z" fill="#424653"/>
</svg>
