<svg width="48" height="49" viewBox="0 0 48 49" fill="none" xmlns="http://www.w3.org/2000/svg">
<g clip-path="url(#clip0_1_5019)">
<path d="M38 0.5H10C4.47715 0.5 0 4.97715 0 10.5V38.5C0 44.0228 4.47715 48.5 10 48.5H38C43.5228 48.5 48 44.0228 48 38.5V10.5C48 4.97715 43.5228 0.5 38 0.5Z" fill="#0E0F0F"/>
<path d="M27.7796 20.9134H39.997L30.1143 28.0982L24.0058 32.5344L14.1115 39.7192L17.8973 28.0982L8.00305 20.9018L20.2204 20.9134L24.0058 9.28076L27.7796 20.9134Z" fill="white"/>
<path d="M24.0058 32.5343L33.8881 39.7191L30.1143 28.0981L30.9634 30.7292L24.0058 32.5343Z" fill="white"/>
</g>
<defs>
<clipPath id="clip0_1_5019">
<rect width="48" height="49" fill="white"/>
</clipPath>
</defs>
</svg>
