<svg width="84" height="17" viewBox="0 0 84 17" fill="none" xmlns="http://www.w3.org/2000/svg">
<path fill-rule="evenodd" clip-rule="evenodd" d="M40.4846 6.73077H37.7014V13.8077C37.7014 13.8927 37.7686 13.9615 37.8515 13.9615H42.0536C42.1365 13.9615 42.2037 14.0304 42.2037 14.1154V16.0385C42.2037 16.1234 42.1365 16.1923 42.0536 16.1923H38.3018C37.9218 16.1923 37.7318 16.1923 37.5609 16.1201C37.3901 16.0479 37.2557 15.9107 36.987 15.6365L35.8448 14.4708C35.5761 14.1966 35.4417 14.0594 35.3709 13.885C35.3002 13.7107 35.3002 13.5167 35.3002 13.1289V6.73077H33.7204C33.5983 6.73077 33.4993 6.66188 33.4993 6.57692V4.65385C33.4993 4.56888 33.5983 4.5 33.7204 4.5H35.3002V0.653846C35.3002 0.568885 35.3674 0.5 35.4503 0.5H37.5513C37.6342 0.5 37.7014 0.568885 37.7014 0.653846V4.5H40.4846C40.5675 4.5 40.6347 4.56888 40.6347 4.65385V6.57692C40.6347 6.66188 40.5675 6.73077 40.4846 6.73077ZM57.5865 16.0385C57.5865 16.1234 57.5193 16.1923 57.4365 16.1923H55.3354C55.2525 16.1923 55.1853 16.1234 55.1853 16.0385V0.653846C55.1853 0.568885 55.2525 0.5 55.3354 0.5H57.4365C57.5193 0.5 57.5865 0.568885 57.5865 0.653846V16.0385ZM76.1187 11.908C76.2016 11.908 76.2688 11.9769 76.2688 12.0618V12.2236C76.2688 12.9471 76.4102 13.4409 76.741 13.7643C77.0766 14.0925 77.6747 14.312 78.7476 14.312C79.8163 14.312 80.517 14.1363 80.9421 13.8559C81.3432 13.5914 81.526 13.2165 81.526 12.7044C81.526 12.5041 81.4655 12.3636 81.363 12.2502C81.2529 12.1283 81.0783 12.0206 80.8263 11.9284C80.3146 11.7412 79.6013 11.6567 78.7815 11.5618L78.751 11.5583C77.6881 11.4353 76.4676 11.2941 75.5136 10.8297C75.0246 10.5917 74.5902 10.2622 74.2793 9.79408C73.9671 9.32397 73.7948 8.73685 73.7948 8.01085C73.7948 6.84341 74.2982 5.87461 75.1827 5.20716C76.0586 4.54624 77.2903 4.19231 78.7476 4.19231C80.21 4.19231 81.4114 4.57764 82.251 5.33291C83.096 6.09302 83.5361 7.1933 83.5361 8.53745V8.69918C83.5361 8.78414 83.4689 8.85303 83.3861 8.85303H81.2142C81.1321 8.85303 81.0652 8.78534 81.0642 8.70117L81.0622 8.5415C81.0521 7.74869 80.84 7.23432 80.4863 6.91153C80.1265 6.58323 79.5643 6.40139 78.7476 6.40139C77.8778 6.40139 77.2511 6.59411 76.8508 6.88477C76.4607 7.16801 76.2688 7.55446 76.2688 8.01085C76.2688 8.27398 76.3434 8.45887 76.464 8.60228C76.5904 8.75263 76.786 8.87909 77.0599 8.98376C77.6178 9.19693 78.3901 9.28163 79.2619 9.37468L79.2938 9.37806C80.3254 9.48813 81.4824 9.61159 82.3805 10.0332C82.8419 10.2498 83.2517 10.5519 83.5448 10.9851C83.8394 11.4204 84 11.9645 84 12.6357C84 13.8399 83.5301 14.8257 82.6143 15.4989C81.7126 16.1618 80.4091 16.5 78.769 16.5C76.9463 16.5 75.689 16.0418 74.8886 15.2456C74.0868 14.4482 73.7948 13.363 73.7948 12.2236V12.0618C73.7948 11.9769 73.862 11.908 73.9449 11.908H76.1187ZM64.863 4.65385C64.863 4.56888 64.7958 4.5 64.7129 4.5H62.5391C62.4562 4.5 62.389 4.56888 62.389 4.65385V12.2111C62.389 13.5668 62.785 14.6523 63.5562 15.3966C64.3246 16.1383 65.4229 16.5 66.7484 16.5C68.0902 16.5 69.4225 16.1254 70.4122 14.9875L70.4783 16.0487C70.4833 16.1297 70.5489 16.1927 70.628 16.1927H72.4441C72.527 16.1927 72.5942 16.1239 72.5942 16.0389V4.65385C72.5942 4.56888 72.527 4.5 72.4441 4.5H70.2606C70.1777 4.5 70.1105 4.56888 70.1105 4.65385V10.6536C70.1105 11.7161 69.8625 12.6285 69.3816 13.2676C68.9093 13.8952 68.1903 14.2898 67.1691 14.2898C66.3822 14.2898 65.8163 14.0572 65.4466 13.6741C65.0761 13.2901 64.863 12.7138 64.863 11.9462V4.65385ZM61.1884 16.0385C61.1884 16.1234 61.1212 16.1923 61.0383 16.1923H58.9372C58.8543 16.1923 58.7871 16.1234 58.7871 16.0385V0.653846C58.7871 0.568885 58.8543 0.5 58.9372 0.5H61.0383C61.1212 0.5 61.1884 0.568885 61.1884 0.653846V16.0385ZM53.7326 10.9773H45.084C45.1009 11.1094 45.1231 11.239 45.1503 11.3658C45.2435 11.7999 45.3957 12.2005 45.5973 12.5536C46.1479 13.5181 47.067 14.1331 48.2003 14.1331C49.7571 14.1331 50.9545 13.2841 51.2728 12.1522L51.3057 12.0353C51.3242 11.9694 51.383 11.9241 51.4499 11.9241H53.7918C53.8896 11.9241 53.9613 12.0185 53.9372 12.1158L53.8874 12.3173C53.1901 15.1335 50.8426 16.5 48.2003 16.5C45.6673 16.5 43.7249 14.9395 42.9162 12.7295C42.6472 11.9945 42.5038 11.1889 42.5038 10.3462C42.5038 9.74585 42.5729 9.16414 42.7068 8.61309C43.3254 6.0671 45.3279 4.19231 48.2003 4.19231C51.7086 4.19231 53.8968 6.97771 53.8968 10.3462C53.8968 10.4568 53.8943 10.5669 53.8894 10.6762L53.8825 10.8305C53.8788 10.9127 53.8128 10.9773 53.7326 10.9773ZM45.2974 8.76824H51.1034C50.6481 7.44578 49.6111 6.55918 48.2003 6.55918C46.786 6.55918 45.7529 7.44772 45.2974 8.76824ZM6.94165 0.758045C6.668 0.758045 6.40556 0.869421 6.21207 1.06767L0.0760677 7.35448C-0.0864287 7.52097 0.0286571 7.80564 0.258462 7.80564H7.97596C8.11841 7.80564 8.2339 7.92397 8.2339 8.06993V15.9771C8.2339 16.2126 8.51175 16.3305 8.67424 16.164L13.3493 11.374V15.7258C13.3493 16.0108 13.5749 16.2419 13.8531 16.2419H19.5622C19.8404 16.2419 20.066 16.0108 20.066 15.7258V7.89783C20.066 7.75531 20.1787 7.63977 20.3178 7.63977H27.958C28.2362 7.63977 28.4618 7.40869 28.4618 7.12364V1.27417C28.4618 0.989124 28.2362 0.758045 27.958 0.758045H22.1526C20.8165 0.758045 19.5352 1.30182 18.5905 2.26975L15.1124 5.83331V1.02233C15.1124 0.87637 14.997 0.758045 14.8545 0.758045H6.94165Z" fill="white" fill-opacity="0.9"/>
</svg>
