<svg width="109" height="25" viewBox="0 0 109 25" fill="none" xmlns="http://www.w3.org/2000/svg">
<path d="M57.3242 15.1042C54.566 15.1042 52.3803 17.2396 52.3803 20.0521C52.3803 22.8646 54.6181 25 57.3242 25C60.0823 25 62.268 22.8125 62.268 20.0521C62.268 17.2396 60.0823 15.1042 57.3242 15.1042ZM57.3242 17.0833C58.9894 17.0833 60.2384 18.3333 60.2384 20.0521C60.2384 21.7708 58.9374 23.0208 57.3242 23.0208C55.6589 23.0208 54.4099 21.7708 54.4099 20.0521C54.3579 18.3333 55.6589 17.0833 57.3242 17.0833ZM98.4879 21.8229V17.2917H100.83V15.3125H98.4879V12.6562L96.4583 13.2812V15.3125H94.741V17.2917H96.4583V21.8229C96.4583 24.2708 97.7073 25.1562 100.83 24.7396V22.9167C99.2685 23.0208 98.4879 23.0208 98.4879 21.8229ZM109 22.8646H104.368L109 17.2917V15.4167H101.818V17.2917H106.45L101.818 22.8646V24.7917H109V22.8646ZM67.9924 15.2083V17.3958C66.6393 17.2917 65.0781 17.9167 65.0781 20.0521V24.7917H63.0486V15.3646H65.0781V16.9271C65.6506 15.6771 66.7955 15.2083 67.9924 15.2083ZM72.8842 15.1042C70.126 15.1042 67.9403 17.2396 67.9403 20.0521C67.9403 22.8646 70.1781 25 72.8842 25C75.6423 25 77.828 22.8125 77.828 20.0521C77.88 17.2396 75.6943 15.1042 72.8842 15.1042ZM72.8842 17.0833C74.5494 17.0833 75.7984 18.3333 75.7984 20.0521C75.7984 21.7708 74.4974 23.0208 72.8842 23.0208C71.2189 23.0208 69.9699 21.7708 69.9699 20.0521C69.9699 18.3333 71.2709 17.0833 72.8842 17.0833ZM91.2543 15.3646L88.288 24.7917H86.3105L84.333 18.4375L82.3555 24.7917H80.3779L77.4116 15.3646H79.5453L81.3667 21.875L83.3442 15.3646H85.2697L87.2472 21.875L89.0686 15.3646H91.2543ZM93.9604 15.3646H91.9308V24.7917H93.9604V15.3646ZM27.9215 0.625V4.53125C27.1409 3.95833 26.048 3.48958 25.0072 3.48958C22.093 3.48958 19.7512 6.04167 20.0634 9.01042C20.3236 11.3021 22.1971 13.1771 24.4868 13.4375C25.7878 13.5417 26.9848 13.1771 27.9215 12.5V13.2292H30.0031V0L27.9215 0.625ZM27.8695 8.48958C27.8695 10.3125 26.2042 11.7188 24.3307 11.3021C23.2379 11.0938 22.3532 10.2083 22.093 9.0625C21.7287 7.1875 23.1858 5.52083 25.0072 5.52083C26.5684 5.52083 27.8695 6.82292 27.8695 8.48958ZM7.83401 3.80208V4.42708C7.05341 3.85417 6.0126 3.48958 4.9718 3.48958C2.05755 3.48958 -0.284251 6.04167 0.0279898 9.01042C0.28819 11.3021 2.16163 13.1771 4.4514 13.4375C5.7524 13.5417 6.94933 13.1771 7.88605 12.5V13.2292H9.96765V3.80208H7.83401ZM7.83401 8.48958C7.83401 10.3125 6.16872 11.7188 4.29528 11.3021C3.20244 11.0938 2.31775 10.2083 2.05755 9.0625C1.69327 7.1875 3.1504 5.52083 4.9718 5.52083C6.533 5.52083 7.83401 6.82292 7.83401 8.48958ZM15.6921 3.54167C14.3911 3.54167 13.4023 4.01042 12.7778 5V3.75H10.7483V13.1771H12.7778V8.125C12.7778 6.19792 13.8186 5.41667 15.1717 5.41667C16.4727 5.41667 17.2533 6.14583 17.2533 7.60417V13.1771H19.2828V7.44792C19.3349 5 17.8257 3.54167 15.6921 3.54167ZM53.5252 10.4167C53.0569 11.0938 52.2242 11.5625 51.0793 11.5625C49.5702 11.5625 48.3733 10.8333 48.061 9.32292H55.5548C55.6068 9.0625 55.6068 8.75 55.6068 8.48958C55.6068 5.78125 53.6814 3.54167 50.8712 3.54167C47.9049 3.54167 45.9274 5.72917 45.9274 8.48958C45.9274 11.3021 47.9569 13.4375 51.0273 13.4375C52.8487 13.4375 54.3058 12.6562 55.1385 11.4062L53.5252 10.4167ZM50.9232 5.41667C52.1722 5.41667 53.3171 6.09375 53.6293 7.70833H48.061C48.3733 6.30208 49.4141 5.41667 50.9232 5.41667ZM76.7872 11.6146C77.932 11.6146 78.7647 11.0938 79.233 10.4688L80.8983 11.4583C80.0136 12.7604 78.6086 13.4896 76.7872 13.4896C73.6648 13.4896 71.6872 11.3542 71.6872 8.54167C71.6872 5.72917 73.7168 3.59375 76.631 3.59375C79.4412 3.59375 81.3667 5.83333 81.3667 8.54167C81.3667 8.64583 81.3667 8.80208 81.3147 8.95833C81.3147 9.11458 81.2626 9.21875 81.2626 9.375H73.7688C74.0811 10.8333 75.278 11.6146 76.7872 11.6146ZM79.2851 7.70833C79.0249 6.09375 77.828 5.41667 76.579 5.41667C75.0698 5.41667 74.029 6.30208 73.7168 7.70833H79.2851ZM93.9604 13.2292H91.9308V11.4062H93.9604V13.2292ZM82.3555 13.2292H84.385V8.17708C84.385 6.25 85.4258 5.46875 86.7789 5.46875C88.0278 5.46875 88.8605 6.25 88.8605 7.65625V13.1771H90.89V7.39583C90.89 4.94792 89.3809 3.54167 87.2993 3.54167C85.9983 3.54167 85.0095 4.01042 84.385 5V3.80208H82.3555V13.2292ZM58.3129 6.40625C58.3129 5.72917 58.9374 5.41667 59.666 5.41667C60.3945 5.41667 61.019 5.72917 61.3833 6.35417L63.1527 5.46875C62.4761 4.27083 61.2272 3.54167 59.666 3.54167C57.7405 3.54167 56.2313 4.63542 56.2313 6.40625C56.2313 8.38542 57.8966 8.85417 59.3537 9.27083H59.4058C59.4578 9.27083 59.5098 9.32292 59.5619 9.32292C60.5506 9.63542 61.2792 9.84375 61.2792 10.5208C61.2792 11.25 60.6027 11.5625 59.666 11.5625C58.7813 11.5625 58.0527 11.1979 57.6884 10.5208L55.867 11.4062C56.4915 12.6562 57.8446 13.4375 59.6139 13.4375C61.6435 13.4375 63.3088 12.3958 63.3088 10.5208C63.3088 8.48958 61.5394 7.96875 60.1343 7.60417C59.1976 7.34375 58.3129 7.08333 58.3129 6.40625ZM66.171 6.40625C66.171 5.72917 66.7955 5.41667 67.524 5.41667C68.2526 5.41667 68.8771 5.72917 69.2934 6.40625L71.0628 5.52083C70.3862 4.32292 69.0852 3.59375 67.5761 3.59375C65.6506 3.59375 64.1414 4.6875 64.1414 6.45833C64.1414 8.4375 65.8067 8.90625 67.2638 9.32292H67.4199C68.3567 9.63542 69.1893 9.89583 69.1893 10.5729C69.1893 11.3021 68.4607 11.6146 67.5761 11.6146C66.6393 11.6146 65.9628 11.25 65.5985 10.5729L63.7771 11.4583C64.4016 12.7083 65.7026 13.4896 67.524 13.4896C69.6056 13.4896 71.2189 12.4479 71.2189 10.5729C71.2189 8.54167 69.5536 8.07292 68.0965 7.65625H68.0444C67.9403 7.65625 67.8883 7.60417 67.7842 7.60417C66.8995 7.29167 66.171 7.08333 66.171 6.40625ZM35.7795 5.83333V3.64583C34.5826 3.64583 33.4377 4.11458 32.8653 5.36458V3.80208H30.8357V13.2292H32.8653V8.48958C32.8653 6.35417 34.4265 5.72917 35.7795 5.83333ZM45.0947 11.4062V16.5625C45.7192 15.5729 46.708 15.1042 48.009 15.1042C50.0906 15.1042 51.5997 16.5104 51.5997 18.9583V24.7917H49.5702V19.2188C49.5702 17.8125 48.7375 17.0312 47.4886 17.0312C46.1355 17.0312 45.0947 17.8125 45.0947 19.7396V24.7917H43.0652V13.0729C42.4407 13.3333 41.7642 13.4896 40.9836 13.4896C37.8612 13.4896 35.8836 11.3542 35.8836 8.54167C35.8836 5.72917 37.9132 3.59375 40.8274 3.59375C43.6376 3.59375 45.5631 5.83333 45.5631 8.54167C45.5631 8.64583 45.5631 8.80208 45.5111 8.95833C45.5111 9.11458 45.459 9.21875 45.459 9.375H37.9652C38.2775 10.8333 39.4744 11.6146 40.9836 11.6146C41.8682 11.6146 42.5448 11.3021 43.0652 10.8854C43.2213 10.7812 43.3254 10.625 43.4294 10.4688L45.0947 11.4062ZM43.4815 7.70833C43.1692 6.09375 42.0244 5.41667 40.7754 5.41667C39.2662 5.41667 38.2254 6.30208 37.9652 7.70833H43.4815Z" fill="white" fill-opacity="0.9"/>
</svg>
